<?xml version="1.0" encoding="UTF-8"?>
<svg id="_Слой_1" data-name="Слой 1" xmlns="http://www.w3.org/2000/svg" viewBox="0 0 41 41">
  <defs>
    <style>
      .cls-1 {
        fill: #f3f3f3;
        stroke-width: 0px;
      }
    </style>
  </defs>
  <path class="cls-1" d="m20.5,0C9.18,0,0,9.18,0,20.5s9.18,20.5,20.5,20.5,20.5-9.18,20.5-20.5S31.82,0,20.5,0Zm10.27,16.39l-3.49,13.04c-.21.8-1.04,1.28-1.84,1.06-.8-.21-1.28-1.04-1.06-1.84l2.56-9.54-14.18,8.19c-.72.41-1.63.17-2.05-.55-.41-.72-.17-1.63.55-2.05l14.18-8.19-9.54-2.56c-.8-.21-1.28-1.04-1.06-1.84.21-.8,1.04-1.28,1.84-1.06l13.04,3.49c.8.21,1.28,1.04,1.06,1.84Z"/>
</svg>